<?xml version="1.0" standalone="no"?>
<!DOCTYPE svg PUBLIC "-//W3C//DTD SVG 20010904//EN"
 "http://www.w3.org/TR/2001/REC-SVG-20010904/DTD/svg10.dtd">
<svg version="1.0" xmlns="http://www.w3.org/2000/svg"
 width="700.000000pt" height="700.000000pt" viewBox="0 0 700.000000 700.000000"
 preserveAspectRatio="xMidYMid meet">
<metadata>
Created by potrace 1.14, written by Peter Selinger 2001-2017
</metadata>
<g transform="translate(0.000000,700.000000) scale(0.100000,-0.100000)"
fill="#000000" stroke="none">
<path d="M0 3500 l0 -3500 3500 0 3500 0 0 3500 0 3500 -3500 0 -3500 0 0
-3500z m2869 -1196 c191 -49 316 -180 346 -362 l7 -43 -147 3 -147 3 -13 38
c-28 83 -106 127 -225 127 -94 0 -141 -13 -185 -51 -89 -78 -59 -195 64 -248
27 -11 105 -34 173 -50 217 -52 295 -87 381 -170 194 -185 132 -511 -118 -631
-89 -43 -188 -61 -325 -61 -238 0 -408 71 -499 208 -37 55 -71 159 -71 214 l0
39 143 0 143 0 12 -47 c18 -65 80 -126 151 -147 107 -32 247 -13 311 40 68 58
80 140 30 198 -42 47 -92 68 -281 116 -270 69 -388 139 -444 263 -60 132 -33
299 67 413 125 143 398 207 627 148z m-1260 -17 c221 -65 341 -228 341 -461
-1 -154 -37 -254 -125 -343 -107 -107 -230 -143 -484 -143 l-161 0 -2 -232 -3
-233 -147 -3 -148 -3 0 722 0 721 338 -5 c268 -3 348 -7 391 -20z"/>
<path d="M1180 1819 l0 -241 143 4 c154 5 197 16 251 66 97 91 86 296 -21 366
-54 35 -110 45 -250 46 l-123 0 0 -241z"/>
</g>
</svg>
