<?xml version="1.0" standalone="no"?>
<!DOCTYPE svg PUBLIC "-//W3C//DTD SVG 20010904//EN"
 "http://www.w3.org/TR/2001/REC-SVG-20010904/DTD/svg10.dtd">
<svg version="1.0" xmlns="http://www.w3.org/2000/svg"
 width="700.000000pt" height="700.000000pt" viewBox="0 0 700.000000 700.000000"
 preserveAspectRatio="xMidYMid meet">
<metadata>
Created by potrace 1.14, written by Peter Selinger 2001-2017
</metadata>
<g transform="translate(0.000000,700.000000) scale(0.100000,-0.100000)"
fill="#000000" stroke="none">
<path d="M0 3500 l0 -3500 3500 0 3500 0 0 3500 0 3500 -3500 0 -3500 0 0
-3500z m4298 724 c162 -33 276 -114 337 -237 19 -40 37 -96 41 -124 l7 -53
-146 0 -145 0 -7 28 c-23 93 -108 146 -235 147 -140 0 -230 -59 -230 -153 0
-102 57 -141 298 -200 263 -66 378 -136 444 -270 31 -62 33 -74 33 -167 0 -92
-3 -106 -32 -167 -55 -117 -154 -193 -304 -234 -90 -25 -338 -26 -427 -2 -138
39 -252 119 -305 215 -30 56 -57 151 -57 200 l0 33 144 0 144 0 7 -32 c25
-118 121 -181 275 -182 94 -1 165 23 210 69 29 30 34 43 38 93 8 106 -40 137
-312 208 -208 54 -298 94 -370 166 -75 75 -99 143 -94 263 4 105 31 175 94
245 125 138 365 201 592 154z m-1253 -19 c92 -20 163 -55 228 -115 209 -191
186 -585 -44 -742 -105 -73 -217 -97 -451 -98 l-138 0 0 -230 0 -230 -150 0
-150 0 0 715 0 715 318 0 c241 0 334 -4 387 -15z"/>
<path d="M2640 3735 l0 -235 139 0 c154 0 205 12 255 58 93 87 93 265 -1 354
-48 46 -100 58 -254 58 l-139 0 0 -235z"/>
</g>
</svg>
